Coordinates
version=1
nRows=6
nColumns=107
inDegrees=yes

Units are S.I. units (second, meters, Newtons, ...)
If the header above contains a line with 'inDegrees', this indicates whether rotational values are in degrees (yes) or radians (no).

endheader
time	sternoclavicular_r2	sternoclavicular_r3	unrotscap_r3	unrotscap_r2	acromioclavicular_r2	acromioclavicular_r3	acromioclavicular_r1	unrothum_r1	unrothum_r3	unrothum_r2	elv_angle	shoulder_elv	shoulder1_r2	shoulder_rot	elbow_flexion	pro_sup	deviation	flexion	proximal_distal_r1	proximal_distal_r3	cmc_flexion	cmc_abduction	mp_flexion	ip_flexion	mcp2_flexion	mcp2_abduction	pm2_flexion	md2_flexion	mcp3_flexion	mcp3_abduction	pm3_flexion	md3_flexion	mcp4_flexion	mcp4_abduction	pm4_flexion	md4_flexion	mcp5_flexion	mcp5_abduction	pm5_flexion	md5_flexion	bicpt_tx	bicpt_ty	bicpt_tz	bicpt2_tx	bicpt2_ty	bicpt2_tz	ptpt_tx	ptpt_ty	ptpt_tz	FCUpt_tx	FCUpt_ty	FCUpt_tz	EDCpt_tx	EDCpt_ty	EDCpt_tz	APLpt_tx	APLpt_ty	APLpt_tz	FPLpt_tx	FPLpt_ty	FPLpt_tz	FPLpt2_tx	FPLpt2_ty	FPLpt2_tz	PEC1pt2_tx	PEC1pt2_ty	PEC1pt2_tz	PEC1pt3_tx	PEC1pt3_ty	PEC1pt3_tz	PEC2pt2_tx	PEC2pt2_ty	PEC2pt2_tz	PEC2pt3_tx	PEC2pt3_ty	PEC2pt3_tz	PEC3pt2_tx	PEC3pt2_ty	PEC3pt2_tz	PEC3pt3_tx	PEC3pt3_ty	PEC3pt3_tz	DELT2pt2a_tx	DELT2pt2a_ty	DELT2pt2a_tz	DELT2pt2_tx	DELT2pt2_ty	DELT2pt2_tz	LAT1pt2_tx	LAT1pt2_ty	LAT1pt2_tz	LAT1pt3_tx	LAT1pt3_ty	LAT1pt3_tz	LAT2pt2_tx	LAT2pt2_ty	LAT2pt2_tz	LAT2pt3_tx	LAT2pt3_ty	LAT2pt3_tz	LAT3pt2_tx	LAT3pt2_ty	LAT3pt2_tz	LAT3pt3_tx	LAT3pt3_ty	LAT3pt3_tz
      0.53333333	     -0.31573286	      0.13372954	     -0.13372954	      0.31573286	     -0.06392948	      0.51665559	      0.23223313	     -0.23223313	     -0.51665559	      0.06392948	    100.94272457	     74.75256141	     -1.76178290	    -34.17384285	     31.19744232	     79.49382435	      0.32833460	     -0.61195354	      0.35735896	     -0.30597677	     30.45963851	    -23.71406394	     -8.00865348	     -1.68465526	     95.84695004	     13.09638648	     60.72720956	     77.78336173	     94.82761699	      1.13280109	     73.17459476	     54.46690927	     89.92381275	    -13.20216356	     85.62574777	     45.89179444	     90.34168678	    -14.07695379	     91.08830203	      5.41135244	      0.00093191	     -0.03117570	     -0.00487595	      0.01486402	     -0.01867494	     -0.00216053	      0.00167630	     -0.06869803	     -0.00645365	      0.01199713	     -0.18245205	     -0.00007946	     -0.00953924	      0.00322751	     -0.00055978	      0.00031251	      0.00012500	      0.00062502	      0.00040001	      0.00120004	      0.00067502	     -0.00000915	     -0.00024605	     -0.00029526	      0.00245022	      0.00859655	      0.00598021	     -0.00801514	      0.01935262	     -0.01835592	      0.00245022	      0.00859655	      0.00598021	      0.00053988	      0.01794063	     -0.00942714	      0.00389403	      0.00478043	      0.01583435	      0.00000000	      0.00747121	      0.00000000	     -0.00701844	     -0.03243433	     -0.00615857	      0.02061177	     -0.00090191	     -0.00963264	     -0.00087211	      0.01461829	     -0.00598021	      0.00240870	      0.02109685	     -0.01744228	     -0.00585562	      0.01266642	     -0.00535727	     -0.01220960	      0.02674483	     -0.02994258	     -0.02292414	      0.01416147	     -0.00718456	     -0.01519970	      0.03089775	     -0.03741784
      0.56666667	     -0.31974935	      0.13543073	     -0.13543073	      0.31974935	     -0.06474274	      0.52322804	      0.23518740	     -0.23518740	     -0.52322804	      0.06474274	     99.94657430	     75.70349979	     -1.74439680	    -29.39355803	     30.59523337	     74.72101297	      0.34078953	     -0.62726638	      0.36744001	     -0.31363319	     29.79372566	    -23.73088697	     -7.25729067	     -3.49611350	     95.76283788	     13.00133777	     60.50372256	     78.74252651	     94.81008395	      0.89078150	     73.52684177	     54.90201296	     90.05592914	    -13.25929108	     85.80648768	     45.63390791	     91.05143760	    -14.08571235	     91.13827777	      5.37997967	      0.00091200	     -0.03110668	     -0.00486483	      0.01526028	     -0.01851135	     -0.00291836	      0.00202896	     -0.06847000	     -0.00606918	      0.01146195	     -0.18260163	     -0.00017896	     -0.00896650	      0.00297870	     -0.00042953	      0.00031228	      0.00012491	      0.00062455	      0.00039971	      0.00119914	      0.00067451	     -0.00000826	     -0.00025170	     -0.00030204	      0.00248139	      0.00870591	      0.00605629	     -0.00811710	      0.01959881	     -0.01858943	      0.00248139	      0.00870591	      0.00605629	      0.00054675	      0.01816886	     -0.00954706	      0.00393036	      0.00484125	      0.01592449	      0.00000000	      0.00766381	      0.00000000	     -0.00710772	     -0.03284694	     -0.00631850	      0.01860674	     -0.00073645	     -0.00720576	     -0.00088321	      0.01480425	     -0.00605629	      0.00243934	      0.02136523	     -0.01766416	     -0.00593011	      0.01282755	     -0.00542542	     -0.01236492	      0.02708505	     -0.03032348	     -0.02321576	      0.01434162	     -0.00727595	     -0.01539306	      0.03129081	     -0.03789384
      0.60000000	     -0.31781495	      0.13461141	     -0.13461141	      0.31781495	     -0.06435106	      0.52006265	      0.23376458	     -0.23376458	     -0.52006265	      0.06435106	    100.62223650	     75.24551366	     -1.75618933	    -32.14241737	     30.50933489	     76.75279126	      0.31652735	     -0.67663804	      0.34756656	     -0.33831902	     30.83813098	    -23.70336429	     -9.18196217	     -2.03341745	     96.37694414	     13.04178010	     59.74284161	     78.38436220	     95.30092097	      0.94630242	     72.97502982	     54.80873194	     90.42336422	    -13.26853626	     85.10892071	     45.38846686	     91.31791828	    -14.08242900	     90.83220000	      5.39586298	      0.00090915	     -0.03109684	     -0.00486325	      0.01509801	     -0.01848801	     -0.00259969	      0.00187883	     -0.06856707	     -0.00623285	      0.01168891	     -0.18253875	     -0.00013872	     -0.00921031	      0.00308375	     -0.00048345	      0.00030889	      0.00012355	      0.00061777	      0.00039537	      0.00118612	      0.00066719	     -0.00000962	     -0.00024263	     -0.00029115	      0.00246638	      0.00865324	      0.00601965	     -0.00806800	      0.01948024	     -0.01847697	      0.00246638	      0.00865324	      0.00601965	      0.00054344	      0.01805894	     -0.00948930	      0.00391290	      0.00481196	      0.01588135	      0.00000000	      0.00757073	      0.00000000	     -0.00706472	     -0.03264822	     -0.00624122	      0.01979722	     -0.00083086	     -0.00856917	     -0.00087787	      0.01471469	     -0.00601965	      0.00242458	      0.02123597	     -0.01755730	     -0.00589424	      0.01274995	     -0.00539260	     -0.01229011	      0.02692120	     -0.03014003	     -0.02307531	      0.01425486	     -0.00723194	     -0.01529993	      0.03110151	     -0.03766459
      0.63333333	     -0.31603677	      0.13385826	     -0.13385826	      0.31603677	     -0.06399102	      0.51715290	      0.23245667	     -0.23245667	     -0.51715290	      0.06399102	    101.01558523	     74.82451544	     -1.76305456	    -34.13768473	     30.83750250	     78.71984799	      0.31196561	     -0.66453131	      0.34372209	     -0.33226566	     30.38858883	    -23.73078368	     -7.91047421	     -2.78342303	     96.04073764	     13.06247327	     60.26891926	     79.41286652	     94.95550686	      1.06753850	     72.94318609	     54.97071460	     89.93306898	    -13.21098977	     85.74339106	     45.35965811	     90.72282688	    -14.07397568	     91.11648620	      5.37686450	      0.00092001	     -0.03113445	     -0.00486931	      0.01493182	     -0.01857716	     -0.00228560	      0.00173349	     -0.06866105	     -0.00639131	      0.01190986	     -0.18247675	     -0.00009676	     -0.00944636	      0.00318668	     -0.00053782	      0.00031012	      0.00012405	      0.00062023	      0.00039695	      0.00119084	      0.00066985	     -0.00000907	     -0.00024673	     -0.00029608	      0.00245258	      0.00860483	      0.00598597	     -0.00802286	      0.01937125	     -0.01837359	      0.00245258	      0.00860483	      0.00598597	      0.00054040	      0.01795790	     -0.00943621	      0.00389679	      0.00478503	      0.01584125	      0.00000000	      0.00748570	      0.00000000	     -0.00702520	     -0.03246555	     -0.00617060	      0.02059779	     -0.00090064	     -0.00961329	     -0.00087295	      0.01463236	     -0.00598597	      0.00241101	      0.02111716	     -0.01745907	     -0.00586126	      0.01267861	     -0.00536243	     -0.01222135	      0.02677057	     -0.02997140	     -0.02294620	      0.01417510	     -0.00719147	     -0.01521433	      0.03092749	     -0.03745386
      0.66666667	     -0.31592128	      0.13380934	     -0.13380934	      0.31592128	     -0.06396763	      0.51696391	      0.23237172	     -0.23237172	     -0.51696391	      0.06396763	    100.88905703	     74.79717118	     -1.76084622	    -33.94600222	     31.16291550	     79.10778069	      0.32249575	     -0.62117521	      0.35254461	     -0.31058761	     30.35247723	    -23.74069719	     -7.99689013	     -1.98977727	     95.45684353	     13.09572344	     60.72576561	     78.34594302	     94.42316356	      1.21503961	     73.52032226	     54.82054029	     89.58839091	    -13.18742524	     85.39470853	     45.78314072	     90.20603430	    -14.07267443	     90.75650057	      5.38726326	      0.00093077	     -0.03117175	     -0.00487531	      0.01489801	     -0.01866556	     -0.00222302	      0.00170483	     -0.06867959	     -0.00642256	      0.01195358	     -0.18246439	     -0.00008815	     -0.00949291	      0.00320712	     -0.00054878	      0.00031242	      0.00012497	      0.00062484	      0.00039990	      0.00119969	      0.00067483	     -0.00000901	     -0.00024700	     -0.00029639	      0.00245169	      0.00860168	      0.00598378	     -0.00801993	      0.01936417	     -0.01836688	      0.00245169	      0.00860168	      0.00598378	      0.00054020	      0.01795134	     -0.00943276	      0.00389574	      0.00478329	      0.01583863	      0.00000000	      0.00748019	      0.00000000	     -0.00702263	     -0.03245369	     -0.00616603	      0.02052315	     -0.00089389	     -0.00951113	     -0.00087263	      0.01462701	     -0.00598378	      0.00241013	      0.02110944	     -0.01745269	     -0.00585912	      0.01267398	     -0.00536047	     -0.01221688	      0.02676079	     -0.02996045	     -0.02293782	      0.01416992	     -0.00718885	     -0.01520877	      0.03091619	     -0.03744017
      0.70000000	     -0.31899807	      0.13511253	     -0.13511253	      0.31899807	     -0.06459062	      0.52199867	      0.23463481	     -0.23463481	     -0.52199867	      0.06459062	    100.18881665	     75.52562811	     -1.74862472	    -30.38036378	     30.68235455	     75.95925787	      0.34326146	     -0.60782105	      0.36941098	     -0.30391052	     30.64032882	    -23.71420344	     -9.09117003	     -1.24616234	     95.71317096	     13.05568921	     60.49004753	     77.98584687	     94.69842682	      1.00550634	     73.37031418	     54.75035718	     89.85910770	    -13.23705193	     85.29999589	     45.94268744	     90.85243018	    -14.07657630	     90.60455785	      5.35776556	      0.00091488	     -0.03111667	     -0.00486644	      0.01516250	     -0.01853501	     -0.00272483	      0.00193747	     -0.06852916	     -0.00616893	      0.01160011	     -0.18256344	     -0.00015480	     -0.00911509	      0.00304257	     -0.00046213	      0.00031249	      0.00012500	      0.00062499	      0.00039999	      0.00119998	      0.00067499	     -0.00000938	     -0.00024444	     -0.00029332	      0.00247556	      0.00868545	      0.00604206	     -0.00809803	      0.01955276	     -0.01854575	      0.00247556	      0.00868545	      0.00604206	      0.00054546	      0.01812617	     -0.00952463	      0.00392359	      0.00482987	      0.01590780	      0.00000000	      0.00762759	      0.00000000	     -0.00709102	     -0.03276976	     -0.00628843	      0.01904570	     -0.00077010	     -0.00768487	     -0.00088113	      0.01476947	     -0.00604206	      0.00243361	      0.02131503	     -0.01762266	     -0.00591618	      0.01279741	     -0.00541267	     -0.01233586	      0.02702141	     -0.03025224	     -0.02316121	      0.01430792	     -0.00725886	     -0.01535689	      0.03121729	     -0.03780480
